<svg xmlns="http://www.w3.org/2000/svg" viewBox="0 0 24 24" fill="currentColor">
  <!-- Helmet silhouette with eye-socket and grill cutouts via evenodd -->
  <path fill-rule="evenodd" clip-rule="evenodd" d="
    M12 1.2
    C6.8 1.2 3 5 3 9.2
    L3 13
    C3 15.8 4.2 18 6 19.4
    L7.8 22 L16.2 22
    L18 19.4
    C19.8 18 21 15.8 21 13
    L21 9.2
    C21 5 17.2 1.2 12 1.2 Z

    M 7 9.1 L 7 10.8 L 10.8 10.8 L 10.8 9.1 Z
    M 13.2 9.1 L 13.2 10.8 L 17 10.8 L 17 9.1 Z

    M 8 13.2 L 8 14 L 16 14 L 16 13.2 Z
    M 8 14.7 L 8 15.5 L 16 15.5 L 16 14.7 Z
    M 8.5 16.2 L 8.5 17 L 15.5 17 L 15.5 16.2 Z

    M 11 2.5 L 11 5 L 13 5 L 13 2.5 Z
  "/>
</svg>
