<svg xmlns="http://www.w3.org/2000/svg" viewBox="0 0 24 24" fill="none">
  <!-- Helmet dome -->
  <path d="M12 2C7.5 2 4 5.5 4 9v3c0 1.5.5 3 1.5 4L8 19h8l2.5-3C19.5 15 20 13.5 20 12V9c0-3.5-3.5-7-8-7z"
        fill="#222" stroke="#555" stroke-width="0.5"/>
  <!-- Helmet top ridge -->
  <path d="M8 5c2-1.5 6-1.5 8 0" fill="none" stroke="#555" stroke-width="1" stroke-linecap="round"/>
  <!-- Centre fin -->
  <path d="M11.5 2.2 L12 1 L12.5 2.2 L12.5 6 L11.5 6 Z" fill="#2a2a2a"/>
  <!-- Eye glow left -->
  <rect x="7.5" y="9.5" width="3" height="1.2" rx="0.6" fill="#ff2200"/>
  <!-- Eye glow right -->
  <rect x="13.5" y="9.5" width="3" height="1.2" rx="0.6" fill="#ff2200"/>
  <!-- Mouth grill lines -->
  <line x1="9"   y1="13"   x2="15"  y2="13"   stroke="#444" stroke-width="0.7" stroke-linecap="round"/>
  <line x1="9"   y1="14.3" x2="15"  y2="14.3" stroke="#444" stroke-width="0.7" stroke-linecap="round"/>
  <line x1="9.5" y1="15.6" x2="14.5" y2="15.6" stroke="#444" stroke-width="0.7" stroke-linecap="round"/>
  <!-- Neck -->
  <rect x="9.5" y="19" width="5" height="2.5" rx="1" fill="#1a1a1a" stroke="#444" stroke-width="0.4"/>
</svg>
